<svg width="20" height="21" xmlns="http://www.w3.org/2000/svg">
 <!-- Created with Method Draw - http://github.com/duopixel/Method-Draw/ -->
 <g>
  <title>background</title>
  <rect fill="none" id="canvas_background" height="23" width="22" y="-1" x="-1"/>
  <g display="none" overflow="visible" y="0" x="0" height="100%" width="100%" id="canvasGrid">
   <rect fill="url(#gridpattern)" stroke-width="0" y="0" x="0" height="100%" width="100%"/>
  </g>
 </g>
 <g>
  <title>Layer 1</title>
  <path stroke="#000" transform="rotate(-1.8637518882751465 10.153732299804652,10.761352539062528) " d="m12.870178,8.457281c-0.596883,0 -0.596883,0 -0.596883,0c-0.596883,-0.576018 -1.193765,-1.152036 -1.790648,-1.728054c-0.596883,-0.576018 -1.193765,-1.152036 -1.790648,-1.728054c-0.596883,-0.576018 -1.239204,-0.355581 -1.790648,-0.576018c-0.779865,-0.31174 -1.193765,-0.576018 -1.193765,-0.576018c0,0 -0.596883,0 -0.596883,0c0,0 -0.596883,0 -1.193765,0c-0.596883,0 -0.596883,0 -1.193765,0c0,0 -0.596883,0 -0.596883,0c-0.596883,0 -0.596883,0.576018 -0.596883,0.576018c-0.596883,0 -0.596883,0.576018 -0.596883,0.576018c0,0 0,1.152036 0,1.728054c0,1.152036 0,1.728054 0,2.88009c0,0.576018 -0.137135,1.167444 0,1.728054c0.306647,1.253561 1.790648,1.728054 2.984413,2.88009c1.193765,1.152036 1.881515,1.287189 2.984413,1.728054c0.779865,0.31174 1.239204,0.931599 1.790648,1.152036c0.779865,0.31174 1.209731,1.019695 1.790648,1.152036c1.298968,0.295928 1.790648,0.576018 1.790648,0.576018c0.596883,0 1.193765,0 1.193765,0.576018c0,0 0.596883,0 0.596883,0c0,0.576018 0,0.576018 0.596883,0.576018c0,0 0,0 0,0c0.596883,0 0.596883,0.576018 0.596883,0.576018c0.596883,0 0.596883,0 0.596883,-0.576018c0,-0.576018 0,-1.728054 0,-2.304072c0,-0.576018 0.27385,-0.399431 0.596883,-1.152036c0.228421,-0.532168 0.368461,-1.771904 0.596883,-2.304072c0.323032,-0.752604 0.596883,-0.576018 1.193765,-1.152036c0,0 0.290235,-0.474492 0.596883,-1.728054c0.274269,-1.12122 -0.42206,-1.320747 0,-1.728054c0.42206,-0.407307 0.596883,-0.576018 0.596883,-0.576018c0,-0.576018 0,-0.576018 0,-1.152036c0,0 0,0 0,-0.576018c0,-1.152036 0,-1.728054 0,-2.304072c0,0 0,-0.576018 0,-0.576018c0,0 0,-0.576018 -0.596883,-1.152036c-0.596883,-0.576018 -0.642321,-1.507617 -1.193765,-1.728054c-0.779865,-0.31174 -0.596883,-0.576018 -0.596883,-0.576018c0,0 -0.596883,0 -0.596883,0c0,0 0,0 -0.596883,0c0,0 0,0.576018 -0.596883,0.576018c0,0 0,0.576018 -0.596883,1.152036c0,0 0,0.576018 -0.596883,0.576018c0,0 0,0.576018 0,0.576018c0,0 -0.174822,0.168711 -0.596883,0.576018c-0.42206,0.407307 0,0.576018 0,0.576018c0,0.576018 0,0.576018 -0.596883,0.576018c0,0 0,0.576018 0,0.576018c0,0 0.42206,0.168711 0,0.576018c-0.42206,0.407307 -0.596883,0.576018 -0.596883,0.576018l-0.596883,0.576018l0,0" id="svg_1" stroke-width="1.5" fill="#ffdcec"/>
 </g>
</svg>